<?xml version="1.0" encoding="UTF-8" standalone="no"?>
<!-- Created with Inkscape (http://www.inkscape.org/) -->
<svg
   xmlns:dc="http://purl.org/dc/elements/1.1/"
   xmlns:cc="http://web.resource.org/cc/"
   xmlns:rdf="http://www.w3.org/1999/02/22-rdf-syntax-ns#"
   xmlns:svg="http://www.w3.org/2000/svg"
   xmlns="http://www.w3.org/2000/svg"
   xmlns:sodipodi="http://sodipodi.sourceforge.net/DTD/sodipodi-0.dtd"
   xmlns:inkscape="http://www.inkscape.org/namespaces/inkscape"
   width="2884"
   height="366"
   id="svg2"
   sodipodi:version="0.32"
   inkscape:version="0.44"
   version="1.0"
   sodipodi:docbase="c:\temp\wp"
   sodipodi:docname="Kannegießer-Logo.svg">
  <defs
     id="defs4" />
  <sodipodi:namedview
     id="base"
     pagecolor="#ffffff"
     bordercolor="#666666"
     borderopacity="1.0"
     inkscape:pageopacity="0.0"
     inkscape:pageshadow="2"
     inkscape:zoom="0.35"
     inkscape:cx="545.4523"
     inkscape:cy="520"
     inkscape:document-units="px"
     inkscape:current-layer="g1978"
     width="2900px"
     height="600px"
     inkscape:window-width="992"
     inkscape:window-height="588"
     inkscape:window-x="108"
     inkscape:window-y="108" />
  <metadata
     id="metadata7">
    <rdf:RDF>
      <cc:Work
         rdf:about="">
        <dc:format>image/svg+xml</dc:format>
        <dc:type
           rdf:resource="http://purl.org/dc/dcmitype/StillImage" />
        <dc:rights>
          <cc:Agent>
            <dc:title>{PD-Logo} - Markenrechtlich geschütztes Logo ohne Schöpfungshöhe</dc:title>
          </cc:Agent>
        </dc:rights>
        <cc:license
           rdf:resource="http://web.resource.org/cc/PublicDomain" />
      </cc:Work>
      <cc:License
         rdf:about="http://web.resource.org/cc/PublicDomain">
        <cc:permits
           rdf:resource="http://web.resource.org/cc/Reproduction" />
        <cc:permits
           rdf:resource="http://web.resource.org/cc/Distribution" />
        <cc:permits
           rdf:resource="http://web.resource.org/cc/DerivativeWorks" />
      </cc:License>
    </rdf:RDF>
  </metadata>
  <g
     inkscape:label="Ebene 1"
     inkscape:groupmode="layer"
     id="layer1"
     transform="translate(-5.990006,-7.571464)">
    <g
       id="g1978"
       transform="translate(17.14289,17.14289)">
      <path
         style="fill:white;fill-opacity:0"
         d="M -11.152884,173.42857 L -11.152884,-9.571426 L 1430.8471,-9.571426 L 2872.8471,-9.571426 L 2872.8471,173.42857 L 2872.8471,356.42857 L 1430.8471,356.42857 L -11.152884,356.42857 L -11.152884,173.42857 z "
         id="path1986" />
      <path
         style="fill:#d8eaf0"
         d="M 13.202314,327.91182 C 12.606088,326.35808 20.545232,306.09848 23.933933,300.52621 L 25.818767,297.42685 L 602.58295,297.67771 L 1179.3471,297.92857 L 1179.6368,299.95101 C 1179.9227,301.94619 1170.6459,325.75228 1168.6371,328.17857 C 1167.8114,329.17593 1051.0018,329.42857 590.69329,329.42857 C 75.97589,329.42857 13.721603,329.26506 13.202314,327.91182 z M 1198.5138,328.7619 C 1197.0466,327.29472 1198.0889,323.0713 1203.4348,308.82219 C 1206.5081,300.6307 1209.2452,293.70357 1209.5173,293.42857 C 1209.7894,293.15357 1234.464,292.70357 1264.3499,292.42857 L 1318.6878,291.92857 L 1321.2516,289.51915 C 1323.3321,287.56395 1330.8614,270.86263 1330.8501,268.22799 C 1330.8485,267.84267 1315.6596,267.39267 1297.0971,267.22799 L 1263.3471,266.92857 L 1257.6035,264.01827 C 1249.723,260.02527 1245.2113,255.25559 1240.9981,246.46344 C 1237.8862,239.96958 1237.369,237.81692 1237.0236,229.91833 L 1236.6265,220.83837 L 1247.8517,191.88347 C 1254.0255,175.95827 1261.0942,157.5411 1263.5597,150.95641 C 1266.0253,144.37172 1269.4098,136.27172 1271.0808,132.95641 C 1277.5862,120.04976 1287.4753,110.57865 1300.4267,104.85096 C 1312.5949,99.4696 1313.359,99.42857 1401.4125,99.42857 C 1481.5138,99.42857 1482.8798,99.46132 1484.8471,101.42857 C 1485.9622,102.5437 1486.8471,104.7619 1486.8471,106.44218 C 1486.8471,110.92707 1416.0354,296.05771 1408.7879,310.52089 C 1403.8641,320.34671 1400.961,323.69461 1394.6273,326.85082 L 1389.4544,329.42857 L 1294.3174,329.42857 C 1241.9921,329.42857 1198.8804,329.12857 1198.5138,328.7619 z M 1359.9458,191.42857 C 1367.0079,173.00357 1373.9152,154.89107 1375.2953,151.17857 L 1377.8047,144.42857 L 1366.8417,144.42857 C 1351.0326,144.42857 1352.6721,142.2531 1336.6965,184.42857 C 1329.509,203.40357 1323.4176,219.64899 1323.1601,220.52949 C 1322.9025,221.41 1323.4486,222.88725 1324.3737,223.81227 C 1325.7769,225.21547 1327.7993,225.44727 1336.5806,225.21134 L 1347.1056,224.92857 L 1359.9458,191.42857 z M 1431.1534,327.78446 C 1430.8064,326.8802 1431.2354,324.2927 1432.1066,322.03446 C 1435.993,311.96126 1441.1851,299.82173 1442.096,298.67857 C 1442.8907,297.68119 1558.5409,297.42857 2014.3471,297.42857 C 2517.1356,297.42857 2585.7492,297.60572 2586.8289,298.9066 C 2587.8269,300.1091 2587.0919,302.6723 2582.8862,312.6566 C 2580.043,319.40618 2577.0608,325.94107 2576.2589,327.17857 L 2574.801,329.42857 L 2003.2927,329.42857 C 1473.9438,329.42857 1431.7378,329.30729 1431.1534,327.78446 z M 36.864642,265.94969 C 35.863305,264.74315 37.613894,259.2645 46.370633,236.19969 C 103.85,84.80194 126.13966,26.86256 127.15145,26.21933 C 129.15105,24.94811 213.27269,25.25415 214.55585,26.5373 C 215.88692,27.86837 215.5672,28.82962 202.47372,62.86214 C 197.19768,76.57561 193.01295,87.92773 193.17431,88.08909 C 193.33567,88.25045 196.81556,86.44005 200.9074,84.06597 C 204.99925,81.69189 229.61472,67.52349 255.60846,52.58063 L 302.86979,25.41179 L 358.59487,25.67018 C 409.72306,25.90726 414.34646,26.06629 414.64134,27.59801 C 414.88194,28.84778 405.5841,34.85841 377.65493,51.50803 C 357.13563,63.74036 324.14712,83.42293 304.34712,95.24708 C 284.54712,107.07124 263.39712,119.66349 257.34712,123.22987 C 251.29712,126.79624 245.7484,130.26471 245.01663,130.93758 C 243.92427,131.94201 248.4531,144.01293 270.31949,198.37862 C 291.52516,251.10158 296.71333,264.88486 295.77754,266.01241 C 294.14308,267.98181 201.64622,268.14248 200.12163,266.17857 C 199.58792,265.49107 190.67416,243.67472 180.31329,217.6978 C 169.95241,191.72087 161.3566,170.58576 161.21148,170.73087 C 161.06637,170.87599 153.0386,192.33534 143.37201,218.41831 C 133.70542,244.50128 125.2453,266.192 124.57175,266.61992 C 123.8982,267.04783 104.16472,267.40484 80.71956,267.41326 C 44.305884,267.42634 37.913091,267.21299 36.864642,265.94969 z M 323.57732,265.00842 C 320.40393,263.70345 316.1941,261.40513 314.22215,259.90105 C 307.15772,254.51274 301.09947,241.83005 300.14439,230.42981 C 299.64171,224.42977 300.04281,222.61799 305.34717,206.92857 C 311.75964,187.96155 319.25521,171.34517 323.28132,167.17166 C 324.74407,165.65536 328.22142,163.25911 331.00877,161.84665 C 338.19067,158.20731 350.3283,157.48067 404.41219,157.45225 L 449.47726,157.42857 L 451.67231,151.17857 C 453.57585,145.75861 454.41819,140.95357 453.59712,140.19874 C 453.45962,140.07233 427.02212,139.73483 394.84712,139.44874 C 336.82805,138.93285 336.34471,138.91172 336.05378,136.87856 C 335.70521,134.44264 348.46595,101.29161 350.16912,100.2084 C 350.81702,99.79634 383.74712,99.45765 423.34712,99.45575 C 501.12053,99.45203 500.1165,99.39014 511.3373,104.87997 C 519.35839,108.80432 525.33068,114.6341 529.0319,122.15235 C 531.87666,127.93088 532.33783,129.98651 532.66565,138.34971 C 533.01311,147.21364 532.76387,148.78689 529.32628,159.42857 C 522.81479,179.5861 490.85652,263.35594 488.60106,266.17857 C 487.81684,267.15999 470.6004,267.42347 408.47468,267.40483 L 329.34712,267.3811 L 323.57732,265.00842 z M 429.52317,208.92857 L 433.60075,198.42857 L 409.97394,198.44388 C 396.97919,198.4523 385.76721,198.82712 385.05842,199.27682 C 383.79952,200.07553 377.85794,214.77224 377.85075,217.10525 C 377.84493,218.99174 380.1421,219.19023 403.39636,219.31257 L 425.44559,219.42857 L 429.52317,208.92857 z M 518.95783,266.06197 C 518.07843,265.00235 522.89588,251.35603 540.40395,205.31197 C 582.2514,95.25832 579.00482,103.31169 582.34712,101.26928 C 585.18714,99.53381 589.43027,99.43585 661.91562,99.43231 C 746.13112,99.4282 743.72993,99.2662 753.287,105.59654 C 759.02152,109.39493 765.15749,118.32401 767.57039,126.38179 C 768.48869,129.44841 769.22399,135.28209 769.21485,139.42857 C 769.1987,146.75535 768.68389,148.29126 746.92537,205.92857 C 734.67524,238.37857 724.18707,265.49596 723.61831,266.18944 C 722.81006,267.17491 713.49695,267.39332 680.97916,267.18944 C 642.36296,266.94731 639.35007,266.80358 639.03925,265.18871 C 638.85507,264.23178 640.27861,259.28178 642.20267,254.18871 C 683.38046,145.1892 682.51568,147.88184 676.84712,146.31774 C 672.13643,145.01794 649.10578,145.31195 648.58218,146.67857 C 648.31878,147.36607 638.08413,174.25357 625.8385,206.42857 C 613.59288,238.60357 603.13015,265.49107 602.58798,266.17857 C 601.07598,268.0959 520.55267,267.98363 518.95783,266.06197 z M 752.87971,265.96783 C 751.89591,264.78243 757.08377,250.22138 780.40258,188.71783 C 796.20693,147.03374 810.15605,110.60352 811.40061,107.7618 C 815.38429,98.6658 808.1702,99.34539 897.45755,99.65501 L 976.3471,99.92857 L 982.1759,102.79064 C 990.0325,106.64847 994.4015,111.28264 998.6843,120.30105 C 1001.7988,126.85928 1002.3254,129.05375 1002.6661,136.8937 L 1003.0588,145.92857 L 980.4945,205.84389 C 968.08411,238.79732 957.34898,266.12793 956.63864,266.57858 C 955.92831,267.02923 937.06472,267.40484 914.71956,267.41326 C 881.70985,267.4257 873.88079,267.17406 872.96552,266.07123 C 872.09969,265.02797 873.70827,259.76386 879.91738,243.32123 C 909.66798,164.53723 913.91852,152.84372 913.6469,150.52926 C 913.14915,146.28802 909.82377,145.39897 895.50212,145.67816 L 882.65712,145.92857 L 859.83855,205.81614 C 847.28833,238.7543 836.41858,266.08491 835.68355,266.55082 C 834.94851,267.01674 816.28972,267.40484 794.21956,267.41326 C 760.23677,267.42623 753.90637,267.20489 752.87971,265.96783 z M 1028.1713,265.98908 C 1018.7357,263.03874 1011.5424,256.32138 1006.6895,245.92857 C 1003.9387,240.03762 1003.3583,237.50265 1003.0263,229.92857 L 1002.6318,220.92857 L 1017.7553,181.42857 C 1035.5487,134.95525 1035.9285,134.07197 1042.1286,124.74427 C 1047.4713,116.70636 1055.6146,109.90034 1065.4347,105.26536 C 1077.6923,99.47986 1077.9501,99.4649 1165.6628,99.44593 C 1224.2754,99.43326 1246.5688,99.73925 1248.1628,100.57827 C 1250.9487,102.04465 1251.8127,103.36755 1251.8318,106.19618 C 1251.8461,108.3138 1225.1307,180.94482 1222.3205,186.42857 C 1218.0788,194.70547 1207.8045,203.6861 1198.0876,207.61029 C 1192.4035,209.90581 1191.8374,209.93348 1140.4209,210.42857 L 1088.4948,210.92857 L 1086.5563,215.65369 C 1085.3731,218.53782 1084.8647,221.36255 1085.2515,222.90369 L 1085.8852,225.42857 L 1144.7437,225.42857 C 1194.6545,225.42857 1203.7832,225.6467 1204.793,226.86341 C 1205.7424,228.00737 1204.6365,232.00941 1199.3377,246.60466 C 1195.6823,256.67318 1192.2215,265.4775 1191.6469,266.16982 C 1190.094,268.04092 1034.1821,267.86854 1028.1713,265.98908 z M 1157.7341,162.67857 C 1159.4871,161.22366 1164.8471,148.08024 1164.8471,145.23654 C 1164.8471,144.77358 1153.3139,144.5149 1139.2177,144.66169 L 1113.5883,144.92857 L 1109.795,154.67857 L 1106.0018,164.42857 L 1130.8137,164.42857 C 1152.9741,164.42857 1155.8509,164.24156 1157.7341,162.67857 z M 1605.1713,265.98908 C 1595.735,263.03853 1588.5216,256.22896 1583.5222,245.55195 C 1580.9459,240.05003 1580.3536,237.3971 1580.0236,229.8837 L 1579.6265,220.83884 L 1589.1535,196.3837 C 1594.3934,182.93338 1601.6546,164.09501 1605.2894,154.52066 C 1608.9242,144.94631 1613.334,134.37131 1615.089,131.02066 C 1619.8329,121.96328 1631.5073,110.72512 1640.9762,106.10064 C 1654.7576,99.37003 1653.2921,99.46524 1743.4085,99.44593 C 1823.6161,99.42875 1824.493,99.45005 1826.6585,101.46753 C 1827.8622,102.58895 1828.8471,104.64364 1828.8471,106.03351 C 1828.8471,109.29857 1801.5074,182.51162 1798.0798,188.42551 C 1794.096,195.29881 1786.6145,201.93995 1778.1297,206.13455 L 1770.4552,209.92857 L 1718.2531,210.2278 L 1666.051,210.52703 L 1663.9491,215.41318 C 1662.793,218.10057 1661.8471,220.91341 1661.8471,221.66395 C 1661.8471,225.36937 1662.7997,225.42857 1722.4247,225.42857 C 1773.1985,225.42857 1780.7624,225.62155 1781.8607,226.94502 C 1782.8998,228.19695 1782.0253,231.4675 1776.8473,245.69502 C 1773.3978,255.17347 1769.9511,263.94107 1769.1882,265.17857 L 1767.801,267.42857 L 1688.574,267.36167 C 1626.34,267.30913 1608.4515,267.01473 1605.1713,265.98908 z M 1738.7646,155.1761 C 1740.46,150.08724 1741.8471,145.58724 1741.8471,145.1761 C 1741.8471,144.76496 1730.4252,144.42857 1716.465,144.42857 L 1691.0829,144.42857 L 1687.0408,154.42857 L 1682.9986,164.42857 L 1709.3404,164.42857 L 1735.6822,164.42857 L 1738.7646,155.1761 z M 1796.5324,266.78052 C 1796.1555,266.40361 1795.8413,265.38274 1795.8342,264.5119 C 1795.819,262.64562 1808.7168,228.50385 1810.1266,226.67857 C 1810.8811,225.70156 1825.1199,225.42857 1875.3235,225.42857 L 1939.5551,225.42857 L 1942.1043,223.06597 C 1944.688,220.67152 1947.0373,216.7336 1948.2725,212.72667 L 1948.9513,210.52477 L 1894.6492,210.22667 C 1840.4841,209.92932 1840.3346,209.9228 1835.3836,207.64038 C 1829.021,204.70716 1826.9909,202.85692 1824.7278,197.92857 C 1821.131,190.09573 1821.8481,186.9339 1834.8288,153.39349 C 1841.4187,136.36596 1847.9035,120.27748 1849.2393,117.64131 C 1852.2038,111.79106 1859.3847,104.99493 1865.6714,102.08946 L 1870.3471,99.92857 L 1969.459,99.65975 C 2054.1098,99.43015 2068.743,99.59821 2069.75,100.81153 C 2070.685,101.93813 2069.4515,106.13298 2063.7903,121.08035 C 2059.8641,131.44687 2056.1331,140.25918 2055.4994,140.66326 C 2054.8656,141.06734 2025.7293,141.40484 1990.7521,141.41326 C 1918.4609,141.43066 1925.9505,140.42349 1921.3876,150.74107 C 1919.9903,153.90056 1918.8471,156.69777 1918.8471,156.95708 C 1918.8471,157.2164 1942.3596,157.43108 1971.0971,157.43415 C 2003.9535,157.43765 2024.7275,157.82309 2027.066,158.47258 C 2037.4521,161.35706 2044.5168,174.97767 2041.8448,186.96572 C 2040.6433,192.35648 2024.4165,235.88839 2019.6797,246.42857 C 2016.127,254.33398 2009.3354,261.50138 2002.439,264.62344 L 1997.3471,266.92857 L 1897.2824,267.19719 C 1842.2468,267.34493 1796.9093,267.15743 1796.5324,266.78052 z M 2039.5324,266.78052 C 2039.1555,266.40361 2038.8471,265.27702 2038.8471,264.27698 C 2038.8471,262.071 2051.4838,228.5712 2053.0094,226.73307 C 2053.879,225.68518 2066.7271,225.42857 2118.3235,225.42857 L 2182.5551,225.42857 L 2185.1043,223.06597 C 2187.688,220.67152 2190.0373,216.7336 2191.2725,212.72667 L 2191.9513,210.52477 L 2137.6492,210.22667 C 2083.4841,209.92932 2083.3346,209.9228 2078.3836,207.64038 C 2072.2509,204.81312 2070.1633,202.96501 2067.7407,198.21841 C 2064.9965,192.84168 2065.3195,185.90362 2068.7422,176.70736 C 2080.3472,145.52626 2091.4563,118.34972 2094.4264,113.8751 C 2098.3329,107.98967 2105.2062,103.02764 2112.4873,100.83634 C 2119.364,98.76676 2311.0232,98.7309 2312.7395,100.79887 C 2313.6185,101.85809 2312.3815,106.11472 2307.2906,119.54887 C 2303.6683,129.10771 2300.0513,137.94107 2299.2528,139.17857 L 2297.801,141.42857 L 2233.9984,141.42857 L 2170.1957,141.42857 L 2168.1864,143.67857 C 2166.4588,145.61307 2161.8471,155.20514 2161.8471,156.86395 C 2161.8471,157.17449 2185.5846,157.43845 2214.5971,157.45053 C 2265.4712,157.47171 2267.5065,157.54479 2271.8291,159.50552 C 2277.8791,162.24978 2279.7174,164.04884 2282.4791,169.92857 C 2284.2154,173.62527 2284.8301,176.69459 2284.8373,181.70374 C 2284.8462,187.88803 2283.9196,190.94048 2274.2126,216.70374 C 2268.3637,232.2274 2262.5203,247.03791 2261.2275,249.616 C 2258.1553,255.7423 2252.8692,260.77894 2245.9406,264.1816 L 2240.3471,266.92857 L 2140.2824,267.19719 C 2085.2468,267.34493 2039.9093,267.15743 2039.5324,266.78052 z M 2322.7173,265.8637 C 2312.1656,262.61473 2304.5333,254.91205 2299.7319,242.66619 C 2297.9795,238.19672 2297.488,234.93935 2297.5084,227.92857 C 2297.5324,219.69506 2297.8955,218.03433 2301.7712,208.42857 C 2304.1013,202.65357 2311.191,184.42857 2317.5259,167.92857 C 2323.8609,151.42857 2330.6867,134.77857 2332.6944,130.92857 C 2338.0302,120.69689 2347.2539,111.76212 2357.8471,106.56373 C 2372.5976,99.32527 2370.5649,99.4654 2461.0971,99.44593 C 2540.5256,99.42885 2541.8798,99.4613 2543.8471,101.42857 C 2545.0309,102.61232 2545.8445,104.75497 2545.8406,106.67857 C 2545.8321,110.96058 2518.5877,183.57946 2514.7302,189.60202 C 2510.2909,196.53302 2503.6642,202.1366 2495.0329,206.25836 L 2487.3471,209.92857 L 2435.3422,210.21983 L 2383.3373,210.51109 L 2381.5196,214.90586 C 2380.5199,217.32298 2379.8471,220.56691 2380.0245,222.1146 L 2380.3471,224.92857 L 2439.8471,225.42857 C 2498.3955,225.92057 2499.3516,225.96056 2499.6282,227.92857 C 2499.9727,230.37867 2487.1147,265.63677 2485.5027,266.66257 C 2484.8671,267.06702 2449.0221,267.37349 2405.8471,267.34361 C 2340.8373,267.2986 2326.5515,267.04428 2322.7173,265.8637 z M 2455.9513,155.98438 C 2460.579,143.2889 2462.7469,144.42857 2433.9695,144.42857 C 2415.2563,144.42857 2408.8494,144.7383 2408.1129,145.67857 C 2407.2431,146.78913 2400.8471,162.94416 2400.8471,164.03061 C 2400.8471,164.26775 2412.594,164.34181 2426.9513,164.19517 L 2453.0555,163.92857 L 2455.9513,155.98438 z M 2516.1719,265.83268 C 2515.5085,264.10378 2515.6439,263.73135 2544.8626,186.92857 C 2555.7431,158.32857 2567.4428,127.50357 2570.8619,118.42857 C 2574.2809,109.35357 2577.5337,101.36341 2578.0901,100.67265 C 2578.8899,99.67974 2595.8808,99.47032 2659.2245,99.67265 L 2739.3471,99.92857 L 2739.6445,102.00926 C 2739.9459,104.1183 2726.7023,139.69316 2724.7319,142.06734 C 2723.9012,143.06826 2715.4934,143.42195 2687.2696,143.64324 L 2650.8783,143.92857 L 2647.3963,147.42857 C 2644.365,150.47548 2641.1822,158.17808 2622.8101,206.92857 C 2611.2028,237.72857 2601.0524,263.94107 2600.2535,265.17857 L 2598.801,267.42857 L 2557.7927,267.42857 C 2521.1681,267.42857 2516.7189,267.25797 2516.1719,265.83268 z M 1455.161,264.80429 C 1454.4343,262.91056 1454.0623,263.95547 1474.1647,211.42857 C 1482.6895,189.15357 1495.5946,155.40357 1502.8426,136.42857 C 1510.0907,117.45357 1516.4869,101.36607 1517.0565,100.67857 C 1517.8523,99.71789 1527.062,99.42857 1556.8471,99.42857 C 1590.3641,99.42857 1595.7733,99.63476 1596.8683,100.95408 C 1597.9238,102.22587 1593.1032,115.73881 1567.8834,182.20408 C 1551.2453,226.05255 1536.9953,262.94107 1536.2167,264.17857 L 1534.801,266.42857 L 1495.2927,266.42857 C 1459.7531,266.42857 1455.7217,266.26541 1455.161,264.80429 z M 2774.3471,155.4935 C 2750.1532,149.60354 2748.3578,120.73537 2770.7976,98.4213 C 2785.8826,83.4207 2806.4037,77.64029 2820.1094,84.53104 C 2825.6813,87.33238 2827.6727,89.16989 2829.93,93.59271 C 2834.8042,103.14267 2834.2911,113.04924 2828.2921,125.2184 C 2818.556,144.96855 2792.101,159.81566 2774.3471,155.4935 z M 2796.5596,141.17857 L 2802.3471,138.92857 L 2798.6001,138.61838 C 2794.1471,138.24975 2793.3044,136.97506 2792.3268,129.12864 C 2791.3711,121.4578 2789.4077,121.86255 2786.2056,130.39051 C 2783.4485,137.73331 2782.7518,138.39201 2777.7195,138.41326 C 2771.1719,138.4409 2771.2019,137.38713 2778.2903,118.3508 C 2781.8438,108.80753 2784.6006,100.84876 2784.4165,100.66464 C 2784.2324,100.48052 2781.7691,102.58242 2778.9426,105.33553 C 2765.9767,117.96476 2763.9737,136.3022 2774.9686,141.71866 C 2779.9258,144.16073 2789.5052,143.9211 2796.5596,141.17857 z M 2814.9073,125.80598 C 2818.6334,120.4359 2821.3255,110.79194 2820.4303,106.02028 C 2820.0553,104.02132 2818.4036,100.85405 2816.7598,98.98191 C 2811.7129,93.23383 2800.9424,92.33242 2790.7025,96.80112 C 2787.5018,98.19789 2787.8913,98.26918 2799.1468,98.347 C 2817.7535,98.47563 2821.1658,101.75918 2815.4499,114.03486 C 2813.5247,118.1695 2812.1946,119.56604 2808.4597,121.37407 C 2803.2732,123.8848 2803.4308,123.47233 2805.0231,130.37074 L 2806.1991,135.4655 L 2809.123,132.69703 C 2810.7311,131.17438 2813.334,128.07341 2814.9073,125.80598 z M 2804.1943,111.59742 C 2805.1057,110.59029 2805.5505,109.46529 2805.1826,109.09742 C 2804.1599,108.07472 2793.8471,108.30158 2793.8471,109.34678 C 2793.8471,109.8518 2793.574,110.9768 2793.2401,111.84678 C 2792.3003,114.29578 2801.9511,114.07608 2804.1943,111.59742 z M 1526.9199,78.01625 C 1525.9928,76.89922 1527.666,71.51538 1534.9225,52.26625 C 1539.9686,38.88053 1544.5503,27.36096 1545.1041,26.66722 C 1545.8903,25.68218 1554.787,25.46311 1585.7155,25.66722 C 1621.7571,25.90506 1625.349,26.0785 1625.6408,27.59504 C 1625.9823,29.36932 1608.5271,75.90427 1606.6896,78.1183 C 1605.0221,80.1276 1528.591,80.02982 1526.9199,78.01625 z "
         id="path1984" />
      <path
         style="fill:#26b5fb"
         d="M 15.503256,326.67857 C 15.065621,325.96796 22.985848,306.47794 25.662595,301.67857 L 26.917484,299.42857 L 601.82329,299.42857 C 947.19208,299.42857 1176.9542,299.79283 1177.2929,300.34092 C 1177.845,301.23422 1173.9748,311.74366 1169.2509,322.17857 L 1166.8742,327.42857 L 591.41969,327.42857 C 274.9197,327.42857 15.757298,327.09107 15.503256,326.67857 z M 1199.8471,325.57268 C 1199.8471,324.55195 1202.2779,317.23945 1205.2489,309.32268 L 1210.6506,294.92857 L 1264.544,294.42857 C 1324.7954,293.86958 1321.9044,294.2367 1325.6874,286.66395 C 1329.1002,279.83199 1333.049,268.39715 1332.4945,266.95207 C 1332.0389,265.76472 1326.2189,265.47671 1297.6473,265.22761 C 1263.6631,264.93132 1263.3018,264.90625 1258.4242,262.50566 C 1251.5844,259.13931 1246.1972,253.40061 1242.5352,245.57982 C 1239.9449,240.04781 1239.354,237.4065 1239.0236,229.88347 L 1238.6265,220.83837 L 1249.8517,191.88347 C 1256.0255,175.95827 1263.0922,157.52857 1265.5554,150.92857 C 1271.9793,133.71582 1276.2474,126.13087 1283.8072,118.49267 C 1291.4155,110.80545 1301.75,105.19151 1312.4762,102.919 C 1321.7153,100.96156 1481.7086,100.6901 1483.6471,102.62857 C 1484.3071,103.28857 1484.8471,105.10261 1484.8471,106.65978 C 1484.8471,110.804 1413.9009,296.33482 1407.2319,309.63055 C 1402.9974,318.07292 1398.9329,322.72452 1393.4874,325.36064 C 1389.2611,327.40658 1388.2086,327.42857 1294.5314,327.42857 C 1202.9646,327.42857 1199.8471,327.36747 1199.8471,325.57268 z M 1364.1366,185.65061 C 1372.8233,162.94774 1379.6602,143.93524 1379.3298,143.40061 C 1378.9994,142.86599 1373.7833,142.42857 1367.7384,142.42857 C 1356.3967,142.42857 1353.0405,143.29392 1349.7125,147.07619 C 1348.8161,148.095 1342.414,164.00357 1335.4856,182.42857 C 1328.5572,200.85357 1322.3363,217.37572 1321.6614,219.14446 C 1320.5482,222.0621 1320.6578,222.59814 1322.8432,224.92444 C 1325.1938,227.42647 1325.5315,227.48176 1336.7974,227.20855 L 1348.3427,226.92857 L 1364.1366,185.65061 z M 1433.4282,326.55981 C 1433.1329,326.08199 1435.274,319.89449 1438.1862,312.80981 L 1443.481,299.92857 L 2013.3632,299.6777 C 2353.6482,299.5279 2583.611,299.79249 2584.153,300.33444 C 2585.0458,301.22725 2583.6108,305.65282 2578.6104,317.42857 C 2577.3259,320.45357 2575.7128,323.94107 2575.0258,325.17857 L 2573.7767,327.42857 L 2003.8709,327.42857 C 1682.4076,327.42857 1433.7311,327.04985 1433.4282,326.55981 z M 38.43979,264.57852 C 37.953329,263.79141 47.214086,239.14213 109.12792,76.42857 L 127.58256,27.92857 L 170.21484,27.66784 C 208.04641,27.43646 212.84712,27.5805 212.84712,28.94692 C 212.84712,29.79382 207.67212,43.99926 201.34712,60.51455 C 195.02212,77.02985 189.84712,90.74176 189.84712,90.98547 C 189.84712,92.35024 194.3349,90.01784 218.61627,76.03342 C 233.31824,67.56608 258.34174,53.16608 274.22406,44.03342 L 303.101,27.42857 L 357.05739,27.42857 C 399.7778,27.42857 410.92712,27.68888 410.59761,28.67857 C 410.36872,29.36607 401.44372,35.14636 390.76428,41.52365 C 353.44198,63.8109 257.28418,121.1748 249.97826,125.51097 C 245.92538,127.91641 242.40707,130.41176 242.15977,131.05619 C 241.91248,131.70062 253.29085,160.96054 267.44503,196.07823 C 281.59922,231.19592 293.38177,261.1706 293.62849,262.68863 L 294.07707,265.4487 L 247.7121,265.18863 L 201.34712,264.92857 L 181.84712,216.49068 C 171.12212,189.84984 161.87457,167.90483 161.297,167.72398 C 160.71943,167.54312 152.12607,189.34017 142.20063,216.16186 L 124.15438,264.92857 L 81.56637,265.18926 C 58.116726,265.33279 38.736335,265.05834 38.43979,264.57852 z M 324.20367,263.3495 C 314.07799,259.44918 306.61979,250.33189 303.38003,237.89361 C 300.86488,228.2373 301.36863,224.61171 307.8712,205.56953 C 317.73506,176.68415 322.13157,168.76868 330.98937,163.94767 C 338.01841,160.12198 347.24418,159.55804 403.97468,159.48628 C 439.22596,159.44169 449.82724,159.1443 450.59167,158.17857 C 452.19112,156.15791 455.84712,145.56248 455.84712,142.94776 C 455.84712,137.37617 456.42843,137.42857 394.62461,137.42857 C 346.4575,137.42857 337.84712,137.21494 337.84712,136.01985 C 337.84712,135.24505 340.71836,127.25755 344.22765,118.26985 L 350.60818,101.92857 L 421.97765,101.62479 C 473.4806,101.40557 494.87811,101.64491 498.84712,102.48459 C 511.47445,105.15602 522.64144,113.22098 527.52011,123.19263 C 529.82575,127.90518 530.35906,130.48595 530.68037,138.48551 C 531.06045,147.94848 530.975,148.38299 525.56036,164.51884 C 519.84762,181.54305 505.42956,219.83169 493.9631,248.42857 L 487.34712,264.92857 L 408.34712,265.12964 C 331.73682,265.32463 329.19153,265.27078 324.20367,263.3495 z M 426.63595,220.17857 C 428.1873,218.30265 435.72265,198.04316 435.19061,197.17857 C 434.93677,196.76607 423.57539,196.42857 409.94309,196.42857 C 381.14779,196.42857 383.4786,195.55777 378.76407,208.07712 C 375.5331,216.65689 375.623,220.05343 379.09877,220.72305 C 380.33536,220.96129 391.30452,221.21749 403.47468,221.29239 C 420.09692,221.39469 425.85942,221.11757 426.63595,220.17857 z M 520.84712,263.71191 C 520.84712,262.76775 530.34956,237.00525 541.96366,206.46191 C 553.57775,175.91857 566.91372,140.80357 571.59913,128.42857 C 577.21399,113.59875 580.94314,105.16155 582.53836,103.67857 L 584.95865,101.42857 L 661.72138,101.42857 C 745.98769,101.42857 744.24635,101.31316 752.73211,107.46021 C 758.00581,111.28046 764.23442,120.79174 765.97317,127.67971 C 766.70191,130.56658 767.27363,136.07857 767.24367,139.92857 C 767.19209,146.55436 766.02114,150.02916 745.33974,204.92857 C 733.32255,236.82857 723.06549,263.49107 722.54627,264.17857 C 721.33479,265.78269 642.32916,266.01754 641.34179,264.41995 C 640.99894,263.86521 642.2895,259.25271 644.2097,254.16995 C 672.78229,178.53826 681.84712,153.68515 681.84712,150.97911 C 681.84712,144.89124 679.53465,143.96686 663.4939,143.64258 C 655.71317,143.48529 648.86387,143.71029 648.27323,144.14258 C 647.6826,144.57488 637.62208,170.12857 625.91652,200.92857 C 614.21097,231.72857 603.80702,258.84107 602.79664,261.17857 L 600.95958,265.42857 L 560.90335,265.42857 C 523.71758,265.42857 520.84712,265.30555 520.84712,263.71191 z M 754.46072,264.61237 C 754.04572,263.94089 807.51027,121.48812 813.07872,108.42857 C 816.34017,100.77958 809.2455,101.34915 897.4519,101.655 L 976.3471,101.92857 L 981.27,104.35148 C 988.1068,107.71635 993.4948,113.45396 997.1645,121.27732 C 999.8528,127.00851 1000.3255,129.2427 1000.582,137.42857 L 1000.8796,146.92857 L 978.5639,205.92857 L 956.24826,264.92857 L 915.54769,265.18979 C 877.84297,265.43178 874.84712,265.32617 874.84712,263.75501 C 874.84712,262.82222 877.83172,254.15467 881.47956,244.49379 C 909.19759,171.08588 915.84712,152.89748 915.84712,150.48853 C 915.84712,148.96435 914.9098,146.8894 913.74432,145.83356 C 911.87174,144.13714 909.98785,143.92857 896.53736,143.92857 L 881.43321,143.92857 L 858.37646,204.42857 L 835.31971,264.92857 L 795.14941,265.18986 C 773.05574,265.33357 754.74583,265.0737 754.46072,264.61237 z M 1028.2434,264.01037 C 1014.6296,259.74941 1005.8379,246.82988 1005.0509,229.92857 L 1004.6318,220.92857 L 1019.736,181.42857 C 1036.8846,136.58203 1039.7456,130.18678 1046.2077,122.25677 C 1051.876,115.30087 1063.6635,107.25214 1072.6411,104.20751 L 1079.3471,101.93328 L 1162.9932,101.64842 C 1238.6614,101.39073 1246.7922,101.51654 1248.2432,102.96749 C 1249.1253,103.84966 1249.8471,105.44968 1249.8471,106.5231 C 1249.8471,107.59652 1243.3509,125.8023 1235.4112,146.98038 C 1219.536,189.32499 1217.895,192.45282 1207.563,200.0588 C 1196.2769,208.36715 1195.7678,208.42857 1138.1867,208.42857 L 1087.737,208.42857 L 1085.2921,213.95708 C 1082.3731,220.55729 1082.2172,223.5485 1084.6758,225.77358 C 1086.3333,227.2736 1091.9461,227.42857 1144.6168,227.42857 C 1176.5786,227.42857 1202.9526,227.79028 1203.2258,228.23238 C 1203.7041,229.00626 1192.1909,261.62481 1190.5381,264.17857 C 1189.3436,266.02418 1034.1637,265.86336 1028.2434,264.01037 z M 1157.7756,164.96556 C 1160.839,163.3814 1160.9031,163.26649 1164.4583,152.98548 C 1168.3376,141.76751 1169.8732,142.42857 1139.9347,142.42857 C 1116.6284,142.42857 1114.0118,142.59634 1112.642,144.17857 C 1110.6392,146.49202 1103.7418,164.44914 1104.4289,165.56099 C 1104.7238,166.03816 1116.2109,166.42857 1129.9558,166.42857 C 1149.933,166.42857 1155.514,166.13507 1157.7756,164.96556 z M 1605.1434,263.98086 C 1595.5655,260.98712 1586.6861,251.18953 1583.2731,239.84893 C 1582.4888,237.24291 1581.8471,231.7722 1581.8471,227.6918 C 1581.8471,220.70311 1582.3932,218.87118 1591.2639,196.10073 C 1596.4431,182.80604 1603.6566,164.08956 1607.294,154.50854 C 1610.9313,144.92753 1615.0507,134.98785 1616.4481,132.42036 C 1623.4769,119.50615 1634.8364,109.77889 1648.8697,104.65745 L 1656.3471,101.92857 L 1739.6015,101.64576 C 1797.2411,101.44996 1823.4699,101.69153 1824.8515,102.43094 C 1826.0386,103.06625 1826.8471,104.52427 1826.8471,106.02974 C 1826.8471,110.55695 1799.062,183.42927 1795.1193,189.24268 C 1790.493,196.0641 1784.9816,200.74399 1776.8702,204.73878 L 1770.3933,207.92857 L 1718.08,208.22053 L 1665.7667,208.5125 L 1663.7914,211.72053 C 1662.7051,213.48495 1661.3081,216.59567 1660.687,218.63325 C 1659.7458,221.72079 1659.8355,222.76192 1661.2254,224.88325 L 1662.8932,227.42857 L 1721.3111,227.42857 C 1755.3456,227.42857 1779.9639,227.80858 1780.2917,228.33899 C 1780.8742,229.28144 1769.2674,261.96444 1767.5639,264.17857 C 1766.125,266.04884 1611.1561,265.8602 1605.1434,263.98086 z M 1737.2097,164.17857 C 1739.4272,160.6366 1744.095,145.51707 1743.4722,143.89388 C 1742.5968,141.61266 1691.6803,141.71964 1689.7823,144.00669 C 1687.9073,146.26591 1680.8312,164.59387 1681.4484,165.59251 C 1681.7326,166.05234 1694.0782,166.42857 1708.8831,166.42857 C 1735.7139,166.42857 1735.8056,166.42129 1737.2097,164.17857 z M 1797.8471,264.08516 C 1797.8471,262.75084 1810.0213,230.57373 1811.3231,228.46745 C 1811.7563,227.76648 1832.7514,227.42857 1875.8713,227.42857 L 1939.7775,227.42857 L 1943.2013,224.42248 C 1946.8383,221.22913 1949.4711,216.55872 1950.4811,211.50841 L 1951.0971,208.42857 L 1898.5213,208.42857 C 1864.7999,208.42857 1844.1479,208.04305 1840.9329,207.35355 C 1831.0488,205.23378 1825.7055,199.61877 1825.0583,190.67167 C 1824.6641,185.22213 1825.339,183.08173 1836.7362,153.6328 C 1843.3891,136.44249 1849.7544,120.57047 1850.8812,118.36164 C 1853.6764,112.88275 1859.5112,107.26168 1865.4242,104.35148 L 1870.3471,101.92857 L 1969.0971,101.65958 C 2066.3307,101.39472 2067.8471,101.42045 2067.8471,103.33495 C 2067.8471,105.6051 2056.2527,136.23497 2054.6727,138.13871 C 2053.8193,139.16701 2040.7616,139.42857 1990.2804,139.42857 L 1926.9586,139.42857 L 1924.5284,141.67857 C 1921.7079,144.28996 1916.3026,156.73848 1917.2932,158.34132 C 1917.7633,159.10206 1933.7905,159.42857 1970.6627,159.42857 C 2002.0974,159.42857 2024.7395,159.82411 2026.7784,160.40887 C 2036.1945,163.10938 2042.3662,175.65311 2039.8448,186.96572 C 2038.6678,192.24675 2022.4418,235.83899 2017.8863,245.95891 C 2014.2632,254.00744 2009.8912,258.7685 2003.0287,262.13848 L 1997.3471,264.92857 L 1897.5971,265.19738 C 1813.2865,265.42459 1797.8471,265.25243 1797.8471,264.08516 z M 2040.8471,263.9617 C 2040.8471,262.09651 2052.7646,230.39757 2054.1121,228.67857 C 2054.8778,227.70185 2069.0498,227.42857 2118.9347,227.42857 L 2182.7775,227.42857 L 2186.186,224.43585 C 2189.8242,221.24152 2194.341,212.15795 2193.4481,209.83128 C 2192.9958,208.65256 2184.6091,208.42857 2140.9277,208.42857 C 2086.5993,208.42857 2081.6182,208.09669 2075.6575,204.07975 C 2067.2164,198.39133 2065.7375,190.16402 2070.7372,176.70736 C 2081.8437,146.81446 2093.309,118.61762 2095.8724,114.89183 C 2099.4771,109.65253 2106.3689,104.6777 2112.6348,102.79196 C 2116.3251,101.68135 2135.1195,101.42857 2214.006,101.42857 C 2305.569,101.42857 2310.8471,101.52395 2310.8469,103.17857 C 2310.8467,105.2873 2299.1004,136.40331 2297.6344,138.17857 C 2296.8285,139.15454 2282.7207,139.42857 2233.2804,139.42857 L 2169.9586,139.42857 L 2167.4614,141.67857 C 2165.0112,143.88621 2159.8471,154.88671 2159.8471,157.89844 C 2159.8471,159.2527 2166.0251,159.43109 2213.5971,159.45053 C 2263.7155,159.47101 2267.6174,159.59723 2271.3471,161.31861 C 2279.2028,164.94425 2282.8471,171.47326 2282.8471,181.92162 C 2282.8471,187.8173 2281.7742,191.32673 2272.2138,216.70374 C 2266.3655,232.2274 2260.7219,246.63474 2259.6723,248.72006 C 2257.0151,253.99978 2250.5119,260.22969 2244.9963,262.7794 C 2240.3508,264.92687 2240.2684,264.92878 2140.5971,265.19738 C 2052.3457,265.43521 2040.8471,265.29276 2040.8471,263.9617 z M 2322.1796,263.58065 C 2308.9879,259.01392 2300.3799,246.43635 2299.1483,229.92857 C 2298.5356,221.71582 2297.5927,224.64213 2317.3535,173.42857 C 2324.8873,153.90357 2332.4542,135.22857 2334.1688,131.92857 C 2338.7519,123.10789 2349.6295,112.59512 2358.8471,108.07803 C 2372.4922,101.39122 2371.3533,101.46524 2460.8971,101.44593 C 2522.2333,101.43271 2541.7333,101.71481 2542.6471,102.62857 C 2543.3071,103.28857 2543.8442,105.20107 2543.8406,106.87857 C 2543.8316,111.13959 2516.4944,183.62741 2512.958,188.76732 C 2508.4829,195.27168 2501.3617,201.28905 2494.0267,204.76405 L 2487.3471,207.92857 L 2434.8598,208.42857 L 2382.3726,208.92857 L 2380.1689,213.42857 C 2377.7256,218.41779 2377.2027,224.38416 2379.0471,226.22857 C 2379.9532,227.13469 2394.6471,227.42857 2439.0471,227.42857 C 2486.6526,227.42857 2497.8471,227.67628 2497.8471,228.72969 C 2497.8471,229.44531 2494.9777,237.88281 2491.4707,247.47969 L 2485.0943,264.92857 L 2406.2207,265.14907 C 2332.704,265.35459 2326.9961,265.24807 2322.1796,263.58065 z M 2457.5986,156.92857 C 2459.4273,151.97857 2460.7938,146.80357 2460.6353,145.42857 L 2460.3471,142.92857 L 2434.2331,142.66223 C 2413.606,142.45186 2407.8896,142.67245 2407.0267,143.71213 C 2405.6521,145.36844 2398.8471,163.10391 2398.8471,165.03017 C 2398.8471,166.24221 2403.0717,166.41969 2426.5604,166.19439 L 2454.2737,165.92857 L 2457.5986,156.92857 z M 2518.3848,264.48949 C 2518.0655,263.97299 2521.5954,253.51049 2526.2289,241.23949 C 2547.5989,184.64468 2575.095,112.40771 2577.1623,107.42857 L 2579.4459,101.92857 L 2658.6465,101.67255 C 2727.4361,101.45018 2737.8471,101.60793 2737.8471,102.87262 C 2737.8471,104.69768 2724.9394,138.47943 2723.5928,140.17857 C 2722.8347,141.13516 2714.5253,141.42857 2688.1925,141.42857 C 2650.7874,141.42857 2649.7086,141.56829 2644.7514,147.05541 C 2643.2587,148.70762 2639.7842,156.30284 2636.5751,164.92857 C 2617.5996,215.93295 2599.6275,262.9883 2598.692,264.11545 C 2597.826,265.15887 2589.5265,265.42857 2558.2837,265.42857 C 2534.8504,265.42857 2518.7307,265.04917 2518.3848,264.48949 z M 1456.8476,263.17857 C 1456.8479,262.49107 1457.7132,259.67857 1458.7704,256.92857 C 1464.9735,240.79435 1495.3664,161.22921 1505.3728,134.92857 C 1511.8598,117.87857 1517.6003,103.36607 1518.1296,102.67857 C 1518.8695,101.71757 1527.8356,101.42857 1556.9105,101.42857 C 1578.456,101.42857 1594.9702,101.8188 1595.2896,102.33547 C 1595.8685,103.27229 1536.3699,260.95266 1534.5975,263.17857 C 1533.8323,264.13957 1524.7292,264.42857 1495.2247,264.42857 C 1465.189,264.42857 1456.8472,264.15686 1456.8476,263.17857 z M 2774.3471,153.4935 C 2756.0954,149.05016 2751.5172,128.91748 2764.2368,109.03358 C 2768.5795,102.24483 2779.3647,92.47895 2786.234,89.11539 C 2812.8115,76.10167 2834.8183,87.50563 2830.8023,112.2107 C 2826.8592,136.46708 2796.2749,158.8318 2774.3471,153.4935 z M 2796.4033,143.32167 C 2808.0678,138.95739 2818.3824,127.45811 2821.5286,115.31038 C 2822.9673,109.75529 2823.046,108.03572 2822.0182,104.60545 C 2819.4155,95.91829 2813.4721,92.07981 2802.857,92.23032 C 2794.1704,92.35349 2786.7558,95.64831 2779.1264,102.7755 C 2762.8914,117.94175 2761.269,138.49182 2775.8476,144.30512 C 2780.271,146.06897 2790.3492,145.58681 2796.4033,143.32167 z M 2774.8536,134.73894 C 2774.8615,132.5025 2785.5584,103.48134 2787.027,101.71181 C 2788.6858,99.71313 2810.7039,99.93951 2813.6246,101.98527 C 2816.3726,103.91004 2816.4637,107.47367 2813.9089,113.10061 C 2811.8962,117.53363 2809.1304,119.85436 2804.5033,120.99279 C 2801.7388,121.67295 2801.6807,121.82113 2802.4183,126.31051 C 2803.939,135.56769 2803.8239,135.92857 2799.35,135.92857 L 2795.3529,135.92857 L 2794.35,129.71601 C 2793.7984,126.29909 2792.8324,122.99439 2792.2033,122.37223 C 2789.7071,119.90344 2787.4508,121.89848 2784.7825,128.93376 C 2782.2211,135.68707 2782.0038,135.93929 2778.4883,136.23894 C 2775.5248,136.49153 2774.8483,136.21235 2774.8536,134.73894 z M 2805.04,113.67857 C 2809.1747,108.86406 2807.2794,106.42857 2799.3981,106.42857 C 2793.5416,106.42857 2792.206,107.38417 2791.228,112.27388 L 2790.5971,115.42857 L 2797.0671,115.42857 C 2801.9898,115.42857 2803.8965,115.01006 2805.04,113.67857 z M 1528.8471,75.52615 C 1528.8471,73.73178 1543.7834,33.28462 1545.9209,29.2906 C 1546.8659,27.52484 1548.8772,27.42857 1584.8233,27.42857 C 1607.9223,27.42857 1622.9605,27.803 1623.3215,28.38712 C 1623.9284,29.3691 1607.411,73.92198 1605.6035,76.17857 C 1604.8342,77.13895 1595.826,77.42857 1566.7247,77.42857 C 1530.1613,77.42857 1528.8471,77.36257 1528.8471,75.52615 z "
         id="path1982" />
      <path
         style="fill:#232a84"
         d="M 1200.3471,326.42861 C 1199.7036,325.38733 1209.3106,298.01849 1211.1534,295.64322 C 1211.9451,294.62281 1222.889,294.38012 1264.2489,294.46578 C 1292.9029,294.52512 1317.2471,294.25006 1318.3471,293.85453 C 1322.8005,292.25322 1325.9123,287.87632 1329.8556,277.66718 C 1332.0635,271.9512 1333.6132,266.85916 1333.2995,266.35153 C 1332.97,265.81844 1319.1008,265.42857 1300.4662,265.42857 C 1265.7949,265.42857 1263.1484,265.10596 1254.7642,259.85737 C 1246.0027,254.37259 1239.6954,242.36945 1239.043,229.93888 L 1238.6189,221.8584 L 1248.3618,196.89349 C 1253.7204,183.16278 1260.9099,164.50074 1264.3385,155.42229 C 1267.7671,146.34383 1272.0194,136.04928 1273.7881,132.5455 C 1278.4305,123.34899 1289.4361,112.65704 1298.9315,108.11883 C 1312.9684,101.41 1312.6833,101.42857 1401.65,101.42857 C 1477.7734,101.42857 1481.6151,101.51473 1483.1921,103.25731 C 1484.1024,104.26312 1484.8471,105.79041 1484.8471,106.65129 C 1484.8471,107.90361 1449.7419,200.79336 1431.833,246.92857 C 1429.698,252.42857 1425.4285,263.45357 1422.3451,271.42857 C 1406.686,311.93063 1402.9742,319.13761 1395.3062,323.92857 L 1390.5047,326.92857 L 1295.7441,327.19346 C 1231.5461,327.37291 1200.7783,327.12623 1200.3471,326.42861 z M 1348.5949,226.17857 C 1349.141,225.49107 1353.2619,215.25357 1357.7527,203.42857 C 1362.2434,191.60357 1366.3694,180.85618 1366.9216,179.54547 C 1370.4861,171.08408 1379.8471,145.36936 1379.8471,144.039 C 1379.8471,142.64422 1378.1713,142.42857 1367.3324,142.42857 L 1354.8177,142.42857 L 1351.2806,145.67857 C 1348.1692,148.53747 1346.1262,153.20062 1334.3041,184.42857 C 1326.9124,203.95357 1320.8607,220.71607 1320.8559,221.67857 C 1320.8511,222.64107 1321.7471,224.32857 1322.8471,225.42857 C 1324.6127,227.19419 1326.1804,227.42857 1336.2247,227.42857 C 1344.1306,227.42857 1347.9051,227.04716 1348.5949,226.17857 z M 39.272575,264.09491 C 38.9911,263.3614 43.008726,251.5489 48.200632,237.84491 C 61.782857,201.99475 93.84694,117.61586 106.30903,84.92857 C 112.18031,69.52857 119.28432,50.85357 122.09573,43.42857 C 124.90713,36.00357 127.63142,29.36607 128.14969,28.67857 C 128.87688,27.71395 138.52495,27.42857 170.41055,27.42857 C 194.05047,27.42857 211.96891,27.81661 212.28959,28.33549 C 212.59787,28.8343 207.67443,42.7471 201.34861,59.25282 C 190.6964,87.04721 188.92137,92.42857 190.40563,92.42857 C 190.71281,92.42857 214.73906,78.73759 243.79731,62.00416 C 272.85555,45.27073 298.46129,30.64573 300.69896,29.50416 C 304.66384,27.48143 306.10383,27.42857 357.24826,27.42857 C 386.39833,27.42857 409.97094,27.81991 410.27313,28.30885 C 410.57235,28.793 405.53641,32.33002 399.08214,36.16889 C 367.28827,55.07926 289.52344,101.42605 267.34712,114.6812 C 253.59712,122.89979 242.07132,130.06933 241.73424,130.61349 C 241.04085,131.73285 241.37667,132.59911 271.78794,208.13841 C 284.01271,238.50382 293.72551,263.81632 293.37194,264.38841 C 292.94226,265.08364 277.83394,265.42857 247.81116,265.42857 L 202.89323,265.42857 L 201.49861,263.17857 C 200.73158,261.94107 191.86744,240.22857 181.80053,214.92857 C 171.73362,189.62857 163.05489,168.347 162.51447,167.63619 C 160.51013,164.9999 162.27448,160.76448 137.81495,226.92857 C 130.49529,246.72857 124.07802,263.49107 123.55435,264.17857 C 122.11194,266.07225 40.000074,265.99075 39.272575,264.09491 z M 326.28538,263.61332 C 323.50142,262.65085 319.85761,260.97804 318.18801,259.89597 C 310.41708,254.85961 304.21618,243.7915 302.57838,232.03403 L 301.58859,224.92857 L 307.7347,206.92857 C 318.10479,176.55787 323.213,167.76915 333.08984,163.30485 L 338.34712,160.92857 L 393.84712,160.42857 C 424.37212,160.15357 449.87456,159.58618 450.5192,159.16771 C 451.9906,158.21254 456.09712,146.03432 456.09712,142.62593 C 456.09712,137.36041 456.88901,137.42857 395.71501,137.42857 C 362.31151,137.42857 338.73159,137.05065 338.39741,136.50994 C 337.89522,135.69738 349.16139,105.87048 351.17615,102.67857 C 352.25105,100.97563 490.06334,100.85843 498.0479,102.55367 C 511.13569,105.3324 522.90234,113.93892 527.57874,124.15354 C 530.62545,130.80843 531.65326,141.44243 529.99645,149.16786 C 527.4931,160.84061 490.11815,259.98722 486.64263,264.17496 C 485.82474,265.16047 469.10743,265.42159 408.47468,265.39592 C 337.66725,265.36595 330.93234,265.21988 326.28538,263.61332 z M 431.68068,209.68855 C 434.09412,203.50653 435.79705,197.74049 435.46498,196.87511 C 434.93363,195.49043 431.87972,195.3393 410.00561,195.61514 C 391.05821,195.85407 384.76637,196.24741 383.53602,197.26993 C 381.55013,198.92037 375.84712,213.44079 375.84712,216.84662 C 375.84712,218.21203 376.63462,219.79226 377.59712,220.35824 C 378.69622,221.00455 388.26355,221.30198 403.31987,221.15793 L 427.29262,220.92857 L 431.68068,209.68855 z M 521.35534,264.44186 C 521.01994,263.89917 523.96464,255.01167 527.89913,244.69186 C 552.81361,179.34338 568.41441,138.22507 575.04618,120.42857 C 578.57504,110.95881 580.95082,106.10053 583.00428,104.1549 L 585.93166,101.38122 L 663.63939,101.6549 L 741.34712,101.92857 L 746.56088,104.28613 C 753.06233,107.22595 760.14901,114.67226 763.61957,122.2105 C 765.67835,126.6823 766.33743,129.89015 766.64348,136.92857 L 767.03484,145.92857 L 755.50252,176.42857 C 749.15974,193.20357 739.07793,219.97857 733.09848,235.92857 L 722.22676,264.92857 L 682.34858,265.19021 C 660.41558,265.33411 642.11782,265.09927 641.6869,264.66835 C 641.25597,264.23742 645.33853,252.19468 650.75925,237.90671 C 674.23561,176.02758 681.73933,155.71047 682.34682,152.3801 C 682.84275,149.66127 682.53048,148.25846 681.01121,146.3801 C 679.08369,143.99702 678.59503,143.91965 663.51002,143.60923 C 645.38416,143.23623 648.14893,141.20901 640.97186,160.13496 C 613.18732,233.4028 602.43545,261.2805 601.22999,263.17857 L 599.80101,265.42857 L 560.88308,265.42857 C 536.36604,265.42857 521.7395,265.06346 521.35534,264.44186 z M 755.28091,264.11663 C 755.00402,263.39507 762.0208,243.70757 770.87376,220.36663 C 779.72671,197.0257 789.69942,170.72857 793.03532,161.92857 C 811.852,112.29082 814.86969,104.91848 817.06972,103.21152 C 819.20872,101.55191 824.08728,101.45923 897.34712,101.68655 L 975.3471,101.92857 L 981.0085,104.70926 C 992.2981,110.2544 999.7065,122.38031 1000.565,136.71902 L 1001.0565,144.92857 L 985.3799,186.42857 C 976.7578,209.25357 966.75264,235.80357 963.14617,245.42857 C 959.53969,255.05357 956.13769,263.49618 955.58616,264.18993 C 954.80301,265.17502 945.90625,265.39404 914.96525,265.18993 C 876.05319,264.93323 875.34936,264.89293 875.47295,262.92857 C 875.54216,261.82857 882.67398,242.25357 891.32145,219.42857 C 899.96891,196.60357 909.02479,172.65869 911.44561,166.21773 C 917.05663,151.28881 917.19132,147.22505 912.16286,144.57827 C 909.031,142.92979 882.42015,143.01571 881.09852,144.67857 C 880.5521,145.36607 877.38755,153.12857 874.06619,161.92857 C 852.40142,219.32974 835.51898,263.10741 834.63445,264.17857 C 833.08804,266.05125 756.00021,265.99108 755.28091,264.11663 z M 1028.8471,263.60293 C 1018.2765,259.66373 1013.4974,255.17972 1008.5097,244.52133 C 1006.1289,239.43353 1005.3771,236.26948 1005.0534,229.97396 L 1004.6398,221.92857 L 1020.8219,179.92857 C 1029.722,156.82857 1038.4288,135.22857 1040.1704,131.92857 C 1044.8713,123.02083 1055.8597,112.45461 1064.9315,108.11883 C 1078.9545,101.41663 1078.7727,101.42857 1166.8049,101.42857 C 1245.1708,101.42857 1245.8646,101.44612 1247.8983,103.47972 C 1249.2957,104.87718 1249.749,106.23164 1249.3207,107.72972 C 1248.9749,108.93909 1242.4029,126.82757 1234.7163,147.4819 C 1219.6397,187.99346 1218.1405,190.90583 1208.1908,199.01323 C 1205.3548,201.32408 1200.5004,204.16288 1197.4033,205.32167 C 1191.9456,207.36366 1190.1913,207.42857 1140.4646,207.42857 C 1092.4699,207.42857 1089.0527,207.54393 1087.5402,209.21517 C 1083.5142,213.66384 1081.4647,223.64617 1084.0471,226.22857 C 1084.953,227.13447 1099.543,227.42857 1143.5785,227.42857 C 1191.1954,227.42857 1202.0036,227.67289 1202.4203,228.75871 C 1202.701,229.49029 1200.0828,237.92779 1196.6021,247.50871 L 1190.2734,264.92857 L 1111.8103,265.10422 C 1040.5708,265.26371 1032.9328,265.12549 1028.8471,263.60293 z M 1159.1606,164.39658 C 1162.0808,162.0996 1167.6066,146.85021 1166.5328,144.05193 C 1165.9596,142.55816 1163.2738,142.42192 1139.1352,142.66219 L 1112.373,142.92857 L 1110.9254,145.92857 C 1108.7467,150.44328 1103.8549,163.75398 1103.8507,165.17857 C 1103.8479,166.14705 1109.7849,166.42857 1130.2122,166.42857 C 1155.2015,166.42857 1156.7122,166.32253 1159.1606,164.39658 z M 1606.7255,263.97862 C 1595.037,260.74813 1586.1449,250.5351 1582.8553,236.56248 C 1580.6073,227.0143 1581.9012,220.9883 1591.3655,196.92857 C 1596.1252,184.82857 1603.1416,166.6462 1606.9574,156.5233 C 1615.1483,134.79404 1618.324,128.53667 1624.9127,121.14437 C 1631.3627,113.90764 1639.3197,108.74285 1649.8029,104.98849 L 1658.3471,101.92857 L 1740.2215,101.64506 C 1812.9508,101.39322 1822.3612,101.53541 1824.4715,102.91811 C 1825.7781,103.77422 1826.8471,105.12229 1826.8471,105.91383 C 1826.8471,109.06456 1797.7483,184.71177 1794.9995,188.70702 C 1790.6623,195.011 1783.4475,201.25612 1777.0222,204.26816 L 1771.3471,206.92857 L 1718.3471,207.42857 L 1665.3471,207.92857 L 1662.5971,213.35788 C 1659.493,219.48624 1659.11,223.5486 1661.4185,225.85714 C 1662.811,227.24956 1669.5924,227.42857 1720.9499,227.42857 C 1770.3873,227.42857 1778.9909,227.63963 1779.4607,228.86393 C 1779.7636,229.65338 1777.123,238.09088 1773.5926,247.61393 L 1767.1737,264.92857 L 1689.2604,265.09227 C 1628.7043,265.21949 1610.3175,264.9714 1606.7255,263.97862 z M 1740.5428,157.42857 C 1742.3308,152.75357 1743.6932,147.57857 1743.5704,145.92857 L 1743.3471,142.92857 L 1717.185,142.66214 C 1694.9674,142.43588 1690.7957,142.62282 1689.5165,143.90202 C 1687.962,145.45649 1680.8388,162.94523 1680.8441,165.19414 C 1680.8465,166.19123 1686.8344,166.40338 1709.0695,166.19414 L 1737.2919,165.92857 L 1740.5428,157.42857 z M 1798.457,264.60646 C 1797.8947,263.69659 1810.3793,230.69719 1812.0453,228.68974 C 1812.8676,227.69894 1826.7792,227.42857 1876.9362,227.42857 L 1940.7804,227.42857 L 1944.2221,223.98687 C 1948.2778,219.93116 1952.1848,210.58848 1950.6238,208.67857 C 1949.8291,207.70622 1937.438,207.42857 1894.8388,207.42857 L 1840.0755,207.42857 L 1834.7845,204.66452 C 1828.6999,201.48588 1824.8471,195.56763 1824.8471,189.39969 C 1824.8471,187.3065 1827.1818,179.6281 1830.1963,171.80697 C 1833.1384,164.17385 1838.5762,150.05357 1842.2803,140.42857 C 1845.9844,130.80357 1850.1996,120.74364 1851.6474,118.07316 C 1855.278,111.37641 1861.7295,105.9896 1869.1005,103.50038 C 1875.1371,101.46178 1876.77,101.42857 1970.9823,101.42857 C 2033.6457,101.42857 2066.9423,101.77362 2067.3462,102.42718 C 2067.9555,103.41296 2056.3757,135.75654 2054.5463,138.17857 C 2053.8084,139.15561 2039.6914,139.42857 1989.899,139.42857 L 1926.1957,139.42857 L 1924.0725,141.68866 C 1921.5687,144.35377 1916.8471,154.6418 1916.8471,157.43212 C 1916.8471,159.33351 1918.1048,159.38501 1971.0971,159.6536 C 2023.9111,159.92129 2025.453,159.98391 2029.3471,162.01911 C 2031.8362,163.32001 2034.4803,165.93445 2036.3471,168.94069 C 2039.0342,173.26782 2039.3471,174.61436 2039.3471,181.85015 C 2039.3471,188.96051 2038.8514,191.18681 2035.2106,200.42857 C 2032.9355,206.20357 2028.0031,219.00722 2024.2498,228.88113 C 2016.8082,248.45765 2013.5588,254.18432 2007.1218,259.06717 C 1998.4526,265.64328 2002.22,265.42857 1895.5022,265.42857 C 1842.4068,265.42857 1798.7365,265.05862 1798.457,264.60646 z M 2041.4098,264.53008 C 2040.6959,263.3749 2053.6985,229.22376 2055.2443,228.19388 C 2055.8508,227.7898 2084.9739,227.4523 2119.9622,227.44388 C 2182.3021,227.42888 2183.629,227.388 2186.1504,225.40463 C 2189.3862,222.85936 2194.1141,213.34302 2193.6767,210.25563 L 2193.3471,207.92857 L 2137.3471,207.42857 L 2081.3471,206.92857 L 2076.5954,204.13543 C 2071.0567,200.87967 2067.8471,195.50928 2067.8471,189.49761 C 2067.8471,184.4362 2091.5472,122.17831 2095.8604,115.90922 C 2100.0861,109.76742 2105.3126,105.79267 2112.2386,103.45374 C 2118.0949,101.47603 2120.4795,101.42857 2213.9823,101.42857 C 2275.6087,101.42857 2309.9455,101.77875 2310.3364,102.41123 C 2310.6704,102.9517 2309.2738,107.7892 2307.2328,113.16123 C 2305.1918,118.53327 2302.4598,125.78986 2301.1616,129.287 C 2299.8635,132.78414 2298.3459,136.49664 2297.7891,137.537 C 2296.8123,139.36211 2294.5331,139.42857 2232.9169,139.42857 L 2169.057,139.42857 L 2166.8598,141.71148 C 2164.2786,144.39334 2158.5961,157.21342 2159.407,158.52548 C 2159.7279,159.04467 2182.6343,159.42857 2213.2919,159.42857 L 2266.6187,159.42857 L 2271.9486,162.21292 C 2276.2633,164.46694 2277.8087,166.01242 2280.0628,170.32711 C 2285.0703,179.91272 2284.5302,182.92965 2271.7683,216.65285 C 2265.6749,232.7545 2259.6171,247.77935 2258.3065,250.04142 C 2255.3208,255.19451 2249.9173,259.98805 2243.95,262.77715 C 2239.3498,264.9273 2239.289,264.92873 2140.6706,265.20208 C 2079.4429,265.37179 2041.7724,265.11675 2041.4098,264.53008 z M 2323.1207,263.50694 C 2315.6797,260.97076 2310.6247,257.318 2307.0159,251.86962 C 2301.9316,244.1938 2299.5914,236.88542 2299.5097,228.42857 C 2299.4435,221.57222 2299.9396,219.64127 2305.2898,205.92857 C 2308.5087,197.67857 2315.3496,179.90357 2320.4918,166.42857 C 2325.6341,152.95357 2331.2279,139.0361 2332.9225,135.50087 C 2339.2879,122.22183 2347.9926,113.52211 2360.9745,107.46482 C 2373.8683,101.44863 2374.2018,101.42857 2461.341,101.42857 C 2547.4057,101.42857 2543.8471,101.20275 2543.8471,106.66417 C 2543.8471,110.23417 2515.7465,183.63435 2512.3192,189.01648 C 2508.2812,195.35775 2502.2083,200.39653 2493.8222,204.36379 L 2487.3471,207.42699 L 2436.1789,207.42778 C 2408.0364,207.42821 2384.2986,207.70183 2383.4282,208.0358 C 2381.3872,208.81903 2377.8056,216.91255 2377.6483,221.0971 C 2377.3969,227.78371 2373.9887,227.42857 2438.4105,227.42857 C 2470.4857,227.42857 2496.9526,227.79028 2497.2258,228.23238 C 2497.7041,229.00626 2486.1909,261.62481 2484.5381,264.17857 C 2483.9017,265.1619 2467.1549,265.41361 2406.0381,265.35844 C 2334.2585,265.29365 2327.9494,265.15277 2323.1207,263.50694 z M 2457.8548,157.67857 C 2459.613,152.86607 2461.1181,147.57857 2461.1994,145.92857 L 2461.3471,142.92857 L 2434.7666,142.66256 C 2410.4031,142.41873 2408.0597,142.54384 2406.6709,144.16256 C 2404.6964,146.46399 2397.774,164.50129 2398.4472,165.59058 C 2398.7321,166.05147 2411.496,166.42857 2426.8115,166.42857 L 2454.658,166.42857 L 2457.8548,157.67857 z M 2518.5263,264.68999 C 2518.2773,264.27121 2522.7771,251.55357 2528.526,236.42857 C 2541.3903,202.58348 2553.4212,170.84595 2564.3486,141.92857 C 2575.2961,112.95806 2578.8051,104.19034 2580.0569,102.67857 C 2580.8688,101.69815 2597.8744,101.42857 2658.9105,101.42857 C 2704.0592,101.42857 2736.963,101.80715 2737.2864,102.33033 C 2737.5929,102.8263 2734.5678,111.7138 2730.564,122.08033 L 2723.2843,140.92857 L 2686.8157,141.42857 C 2651.2435,141.91628 2650.2713,141.98266 2647.2624,144.12898 C 2645.5658,145.33921 2643.1956,148.26421 2641.9954,150.62898 C 2640.7952,152.99376 2632.3779,174.72857 2623.2903,198.92857 C 2614.2027,223.12857 2604.8551,247.87857 2602.5179,253.92857 L 2598.2684,264.92857 L 2558.6238,265.18999 C 2536.8193,265.33376 2518.7754,265.10876 2518.5263,264.68999 z M 1457.4664,263.62153 C 1457.192,263.17766 1463.2469,246.41516 1470.9216,226.37153 C 1487.5742,182.88088 1493.4569,167.47863 1506.8024,132.42857 C 1512.3519,117.85357 1517.3226,104.91607 1517.8483,103.67857 L 1518.8042,101.42857 L 1556.8257,101.42857 C 1592.4913,101.42857 1594.8471,101.53792 1594.8471,103.19336 C 1594.8471,104.164 1591.6607,113.2765 1587.7662,123.44336 C 1583.8717,133.61023 1577.6108,150.02857 1573.8531,159.92857 C 1566.8183,178.46239 1557.1453,203.90392 1542.8706,241.41693 C 1538.3734,253.23553 1534.1658,263.24114 1533.5204,263.65162 C 1531.9256,264.66602 1458.0938,264.63682 1457.4664,263.62153 z M 2769.3471,151.26538 C 2760.6473,146.7528 2757.4844,141.34026 2757.4356,130.88188 C 2757.4063,124.61405 2757.8716,122.85794 2761.6451,114.99366 C 2767.2338,103.34658 2775.2441,95.29911 2787.0144,89.50671 C 2797.3136,84.43831 2805.0255,82.87218 2812.155,84.40119 C 2820.2955,86.14701 2825.2562,89.60174 2828.2504,95.61041 C 2835.8006,110.76171 2826.2568,132.80509 2806.664,145.46854 C 2794.4464,153.36511 2778.2467,155.88159 2769.3471,151.26538 z M 2797.8471,143.13713 C 2804.6824,140.62822 2816.3189,129.39356 2819.7449,121.99558 C 2826.2937,107.85434 2821.8287,95.13442 2809.3346,92.33836 C 2794.6752,89.05774 2777.1805,98.88168 2769.3051,114.81638 C 2761.9317,129.73553 2765.9328,143.02348 2778.5323,145.46009 C 2783.7292,146.46511 2791.2419,145.56157 2797.8471,143.13713 z M 2775.4118,135.53321 C 2774.9008,134.70643 2784.6637,106.50829 2786.9217,102.28922 C 2787.8033,100.64193 2789.2257,100.42857 2799.3265,100.42857 C 2809.8855,100.42857 2810.9407,100.60505 2813.489,102.797 C 2816.1623,105.09646 2816.2047,105.2916 2814.9447,109.49709 C 2813.4902,114.35191 2808.0438,120.42857 2805.1471,120.42857 C 2801.6264,120.42857 2801.032,122.12678 2802.3471,128.42857 C 2803.6923,134.87461 2803.0821,136.42857 2799.2061,136.42857 C 2796.2811,136.42857 2795.5509,135.15121 2794.3471,127.92857 C 2793.393,122.20401 2793.2049,121.91471 2790.25,121.62662 C 2787.2826,121.33731 2787.0578,121.5885 2784.8792,127.62662 C 2783.6286,131.09269 2782.1547,134.49107 2781.6038,135.17857 C 2780.4501,136.61838 2776.2318,136.85999 2775.4118,135.53321 z M 2802.1461,115.36245 C 2806.6447,114.11324 2808.9468,110.45857 2806.8367,107.91608 C 2805.8414,106.71679 2803.9791,106.41358 2798.9776,106.63647 L 2792.4228,106.92857 L 2790.9662,110.76529 C 2789.7106,114.07273 2789.7054,114.72588 2790.9284,115.49998 C 2792.8338,116.70603 2797.5144,116.64864 2802.1461,115.36245 z M 1529.3025,76.1729 C 1528.8343,74.95288 1542.0406,38.77134 1545.6342,31.42857 L 1547.3471,27.92857 L 1585.0971,27.66655 L 1622.8471,27.40452 L 1622.7748,29.66655 C 1622.735,30.91066 1618.7846,42.05357 1613.9962,54.42857 L 1605.29,76.92857 L 1567.5418,77.19063 C 1537.6064,77.39844 1529.6919,77.1878 1529.3025,76.1729 z "
         id="path1980" />
    </g>
  </g>
</svg>
